<?xml version="1.0" encoding="UTF-8"?><svg id="Livello_1" xmlns="http://www.w3.org/2000/svg" viewBox="0 0 786 357.16"><defs><style>.cls-1{fill:#3c3d3b;}.cls-2{fill:#dc0032;fill-rule:evenodd;}</style></defs><path class="cls-2" d="M147.75,.99L6.8,77.8l156.5,91.21c1.34,.77,3.07,2.5,3.07,4.22v133.45c0,1.86-1.67,2.97-1.86,3.16l-9.11,5.02c-1.49,.74-3.53,.93-5.58-.19l-7.99-4.46c-1.12-.56-2.23-2.23-2.23-3.9v-118.34c0-2.11-2.3-3.07-3.84-4.03L0,104.82v158.27c0,3.45,3.45,7.47,6.13,9.19l140.93,83.1c4.6,2.68,7.28,2.3,13.4-.96l139.21-82.15c3.26-1.91,6.32-5.55,6.32-9.38V105.07l-93.71,54.73c-1.15,.77-3.26,.96-4.61,.19l-8.45-4.99c-1.73-.96-3.26-2.88-3.26-4.99l-.19-9.99c0-1.54,.96-3.46,2.3-4.22l100.24-58.38L157.16,.6c-1.92-.77-7.11-.96-9.41,.38h0Z"/><g><path class="cls-1" d="M501.05,262.4V76.33h-34.42v61.01c-3.22-1.91-17.21-4.4-28.37-4.21-36.69,.96-64.12,30.41-63.36,66.17,.95,46.85,28.37,66.55,71.12,69.23,22.32,1.72,48.61-5.16,55.04-6.12h0Zm-34.42-24.88c-2.88,.57-17.99,2.1-23.54,1.15-22.95-3.63-33.85-15.49-34.23-35.76-.19-21.8,8.8-37.48,35.57-38.63,4.59-.19,19.51,2.49,20.29,4.21l1.91,69.04h0Z"/><path class="cls-1" d="M786,262.4V76.33h-34.42v61.01c-3.22-1.91-17.21-4.4-28.37-4.21-36.69,.96-64.12,30.41-63.36,66.17,.95,46.85,28.37,66.55,71.12,69.23,22.13,1.72,48.42-5.16,55.04-6.12h0Zm-32.51-24.88c-3.65,.57-18.76,2.1-24.3,1.15-22.95-3.63-33.85-15.49-34.23-35.76-.19-21.8,8.8-37.48,35.57-38.63,4.59-.19,19.51,2.49,21.05,4.21l1.91,69.04h0Z"/><path class="cls-1" d="M520.18,144.6v174.6h34.42l-.19-151.85c2.32-.57,17.39-2.49,23.18-2.1,23.37,1.34,34.19,14.34,34.58,34.81,.39,13-4.06,23.91-12.56,30.6-6.57,5.16-15.45,7.65-25.89,8.03v30.6c16.08,.38,32.17-2.87,45.03-11.28,16.65-10.9,28.57-35,27.81-57.75-1.14-41.31-24.22-65.02-71.14-65.98-21.95-.96-48.63,6.88-55.25,10.33h0Z"/></g></svg>