<svg xmlns="http://www.w3.org/2000/svg" width="2560" height="1241" viewBox="0 0 2560 1241" version="1.1"><path d="M 1406 590.929 L 1406 912.858 1411.250 914.348 C 1440.092 922.530, 1495.192 930.299, 1544.033 933.069 C 1571.065 934.603, 1622.259 933.804, 1639 931.587 C 1689.993 924.836, 1732.884 908.625, 1766.803 883.282 C 1776.588 875.971, 1793.438 859.706, 1801.281 850 C 1825.478 820.058, 1840.352 783.905, 1847.152 738.500 C 1849.224 724.669, 1848.979 673.746, 1846.772 659.251 C 1837.689 599.613, 1813.166 552.422, 1773.500 518.253 C 1737.031 486.838, 1691.076 468.651, 1636.500 464.036 C 1599.282 460.888, 1554.356 465.632, 1532.448 475.022 L 1528 476.929 1528 372.964 L 1528 269 1467 269 L 1406 269 1406 590.929 M 2245.237 549.250 L 2245.512 793.500 2247.855 806 C 2254.953 843.878, 2268.484 871.924, 2289.638 892.603 C 2313.484 915.913, 2348.979 930.382, 2396.500 936.162 C 2411.033 937.930, 2464.833 937.940, 2483.500 936.179 C 2497.979 934.813, 2525.797 931.384, 2529.750 930.478 L 2532 929.962 2532 873.073 L 2532 816.183 2525.750 818.090 C 2518.361 820.345, 2498.362 824.298, 2485 826.145 C 2479.232 826.943, 2465.876 827.449, 2451 827.435 C 2428.838 827.414, 2425.745 827.201, 2418.590 825.206 C 2392.545 817.942, 2377.640 803.341, 2370.403 778 C 2368.661 771.900, 2368.529 765.425, 2368.245 672.750 L 2367.944 574 2447.472 574 L 2527 574 2527 523 L 2527 472 2447.500 472 L 2368 472 2368 388.500 L 2368 305 2306.480 305 L 2244.961 305 2245.237 549.250 M 2057.061 461.023 C 2013.840 465.506, 1982.628 475.717, 1957 493.757 C 1947.091 500.732, 1933.221 515.282, 1925.729 526.561 C 1911.785 547.552, 1904.054 569.722, 1899.249 602.500 C 1897.832 612.165, 1897.593 632.519, 1897.280 770.250 L 1896.924 927 1959.440 927 L 2021.956 927 2022.232 778.250 L 2022.509 629.500 2024.725 621.704 C 2033.145 592.092, 2052.943 576.131, 2086.450 571.946 C 2098.344 570.460, 2124.796 571.175, 2142.500 573.460 C 2155.739 575.169, 2177.217 579.460, 2183.329 581.616 C 2185.486 582.377, 2187.645 583, 2188.126 583 C 2188.615 583, 2189 557.662, 2189 525.519 L 2189 468.038 2186.750 467.546 C 2182.572 466.631, 2162.591 463.982, 2148 462.407 C 2131.165 460.590, 2070.180 459.662, 2057.061 461.023 M 1577 572.122 C 1560.529 574.016, 1544.051 578.048, 1532.429 583.030 L 1528 584.929 1528 704.964 C 1528 770.984, 1528.377 825, 1528.837 825 C 1529.298 825, 1534.126 825.668, 1539.567 826.485 C 1545.009 827.302, 1558.124 828.439, 1568.713 829.012 C 1615.540 831.544, 1650.715 823.223, 1677.524 803.271 C 1700.701 786.021, 1715.243 762.135, 1722.061 730.116 C 1724.698 717.734, 1725.753 689.525, 1724.105 675.471 C 1717.382 618.137, 1681.748 580.875, 1625.683 572.550 C 1614.393 570.874, 1589.740 570.657, 1577 572.122" stroke="none" fill="#3c3c43" fill-rule="evenodd"/><path d="M 521.734 1.088 C 519.663 1.576, 516.063 2.939, 513.734 4.118 C 506.534 7.761, 28.545 268.195, 27.772 268.897 C 27.371 269.260, 148.837 340.419, 297.696 427.028 C 446.556 513.638, 570.183 585.862, 572.425 587.527 C 574.666 589.192, 577.287 592.117, 578.248 594.027 C 579.898 597.304, 579.997 610.780, 579.998 832.864 L 580 1068.228 577.811 1072.123 C 575.243 1076.691, 574.998 1076.864, 555.500 1087.860 C 541.600 1095.699, 540.005 1096.352, 533.755 1096.772 L 527.011 1097.225 509.936 1087.907 C 500.545 1082.782, 491.704 1077.443, 490.290 1076.044 C 484.670 1070.481, 485 1084.055, 485 858.680 L 485 650.296 482.750 647.040 C 481.007 644.519, 455.808 629.424, 371 580.100 C 310.775 545.073, 203.314 482.548, 132.198 441.156 C 61.082 399.764, 2.242 365.646, 1.441 365.339 C 0.169 364.851, 0.018 399.792, 0.243 642.640 L 0.500 920.500 3.801 927.249 C 5.707 931.146, 9.298 936.184, 12.301 939.172 C 16.555 943.406, 62.928 971.113, 267.494 1091.643 C 451.566 1200.098, 518.755 1239.211, 522.293 1239.969 C 529.499 1241.515, 539.853 1241.162, 545.500 1239.179 C 548.250 1238.213, 613.725 1200.131, 691 1154.553 C 768.275 1108.975, 880.325 1042.937, 940 1007.803 C 1058.512 938.028, 1054.618 940.616, 1061.189 927.268 L 1064.500 920.542 1064.755 642.771 C 1064.896 489.997, 1064.772 365, 1064.480 365 C 1064.187 365, 1003.548 400.174, 929.724 443.165 C 855.901 486.155, 782.572 528.854, 766.771 538.050 C 750.970 547.246, 736.464 555.066, 734.536 555.427 C 728.931 556.479, 724.351 554.622, 706.947 544.239 C 692.454 535.594, 690.216 533.902, 687.533 529.566 C 684.504 524.672, 684.499 524.639, 683.911 505.583 C 683.239 483.812, 683.895 479.278, 688.387 474.632 C 690.151 472.807, 766.597 427.697, 864.784 370.540 C 960.090 315.060, 1037.715 269.323, 1037.284 268.902 C 1034.814 266.487, 549.281 2.864, 544.918 1.568 C 539.244 -0.117, 527.850 -0.353, 521.734 1.088" stroke="none" fill="#d1042d" fill-rule="evenodd"/></svg>