<svg xmlns="http://www.w3.org/2000/svg" viewBox="0 0 133.17 133.17">
    <defs><style>.cls-1{fill:#465da7;}</style></defs>
    <title>NAS</title>
    <g id="NAS" data-name="NAS">
        <g id="NAS_1-2" data-name="NAS 1">
            <circle class="cls-1" cx="105.14" cy="56.07" r="5.26"/>
            <circle class="cls-1" cx="105.06" cy="70.09" r="5.26"/>
            <circle class="cls-1" cx="105.14" cy="28.04" r="10.51"/>
            <path class="cls-1" d="M115.65,8.76a8.77,8.77,0,0,1,8.76,8.76v87.61a8.77,8.77,0,0,1-8.76,8.76H17.52a8.77,8.77,0,0,1-8.76-8.76V17.52a8.77,8.77,0,0,1,8.76-8.76h98.13m0-8.76H17.52A17.52,17.52,0,0,0,0,17.52v87.61a17.52,17.52,0,0,0,17.52,17.52h98.13a17.52,17.52,0,0,0,17.52-17.52V17.52A17.52,17.52,0,0,0,115.65,0Z"/>
            <path class="cls-1" d="M14,126.16h28a0,0,0,0,1,0,0v2.63a4.38,4.38,0,0,1-4.38,4.38H18.4A4.38,4.38,0,0,1,14,128.79v-2.63A0,0,0,0,1,14,126.16Z"/>
            <path class="cls-1" d="M91.12,126.16h28a0,0,0,0,1,0,0v2.63a4.38,4.38,0,0,1-4.38,4.38H95.5a4.38,4.38,0,0,1-4.38-4.38v-2.63A0,0,0,0,1,91.12,126.16Z"/>
        </g>
    </g>
</svg>