<?xml version="1.0" encoding="utf-8"?>
<!-- Generator: Adobe Illustrator 27.8.1, SVG Export Plug-In . SVG Version: 6.00 Build 0)  -->
<svg version="1.1" id="Livello_1" xmlns="http://www.w3.org/2000/svg" xmlns:xlink="http://www.w3.org/1999/xlink" x="0px" y="0px"
	 viewBox="0 0 137.5 135.3" style="enable-background:new 0 0 137.5 135.3;" xml:space="preserve">
<style type="text/css">
	.st0{fill:#465DA7;}
	.st1{fill:#465DA7;stroke:#465DA7;stroke-width:4;stroke-miterlimit:10;}
</style>
<g id="NAS">
	<g id="NAS_1-2">
		<circle class="st0" cx="107.3" cy="58.2" r="5.3"/>
		<circle class="st0" cx="107.2" cy="72.2" r="5.3"/>
		<circle class="st0" cx="107.3" cy="30.1" r="10.5"/>
		<path class="st1" d="M117.8,10.9c4.8,0,8.8,3.9,8.8,8.8v87.6c0,4.8-3.9,8.8-8.8,8.8H19.7c-4.8,0-8.8-3.9-8.8-8.8V19.6
			c0-4.8,3.9-8.8,8.8-8.8H117.8 M117.8,2.1H19.7C10,2.1,2.2,10,2.2,19.6c0,0,0,0,0,0v87.6c0,9.7,7.8,17.5,17.5,17.5h0h98.1
			c9.7,0,17.5-7.8,17.5-17.5v0V19.6C135.3,10,127.5,2.1,117.8,2.1z"/>
		<path class="st0" d="M16.2,128.3h28l0,0v2.6c0,2.4-2,4.4-4.4,4.4c0,0,0,0,0,0H20.6c-2.4,0-4.4-1.9-4.4-4.4c0,0,0,0,0,0
			C16.2,130.9,16.2,128.3,16.2,128.3z"/>
		<path class="st0" d="M93.3,128.3h28l0,0v2.6c0,2.4-2,4.4-4.4,4.4l0,0H97.7c-2.4,0-4.4-2-4.4-4.4l0,0
			C93.3,130.9,93.3,128.3,93.3,128.3z"/>
	</g>
</g>
</svg>
