<svg aria-hidden="true"
     focusable="false"
     data-prefix="fas"
     data-icon="users"
     class="svg-inline--fa fa-users fa-w-20"
     role="img"
     xmlns="http://www.w3.org/2000/svg"
     viewBox="0 0 640 512">
    <path
            fill="#164194"
            d="M231.2,61.6h-29.5V46.9c0-8.1-6.6-14.8-14.8-14.8H24.8c-8.2,0-14.8,6.6-14.8,14.8v118c0,8.2,6.6,14.8,14.8,14.8h66.4l-14.8,29.5h59l-14.8-29.5h51.6v29.5c0,8.2,6.6,14.8,14.8,14.8h44.3c8.2,0,14.8-6.6,14.8-14.8V76.4C246,68.2,239.4,61.6,231.2,61.6z M24.8,150.1V46.9H187v14.8c-8.2,0-14.8,6.6-14.8,14.8v73.8L24.8,150.1L24.8,150.1z M209.1,209.1c-4.1,0-7.4-3.3-7.4-7.4c0-4.1,3.3-7.4,7.4-7.4c4.1,0,7.4,3.3,7.4,7.4C216.5,205.8,213.2,209.1,209.1,209.1z M209.1,179.6c-4.1,0-7.4-3.3-7.4-7.4s3.3-7.4,7.4-7.4c4.1,0,7.4,3.3,7.4,7.4S213.2,179.6,209.1,179.6z M231.2,120.6h-29.5H187v-14.8h44.3V120.6z M231.2,91.1H187V76.4h44.3V91.1z">
    </path>
</svg>

