<?xml version="1.0" encoding="utf-8"?>
<!-- Generator: Adobe Illustrator 26.3.1, SVG Export Plug-In . SVG Version: 6.00 Build 0)  -->
<svg version="1.1" id="Livello_1" xmlns="http://www.w3.org/2000/svg" xmlns:xlink="http://www.w3.org/1999/xlink" x="0px" y="0px"
	 viewBox="0 0 504 372" style="enable-background:new 0 0 504 372;" xml:space="preserve">
<style type="text/css">
	.st0{fill:#465DA7;}
</style>
<path class="st0" d="M245.6,273.1c49.1-0.2,49.1-75,0-75.2C196.4,198.2,196.4,272.9,245.6,273.1z"/>
<path class="st0" d="M271.3,283.9c0,0-2.8,0-2.8,0c-13.8,7.1-32.2,7.1-46,0c-22.3-1.4-41.5,16.2-41.4,38.7
	c-0.9,12.3,1.1,25,16.1,25.8c0,0,96.6,0,96.6,0c8.9,0,16.1-7.2,16.1-16.1C313.2,307.9,297.3,283.6,271.3,283.9z"/>
<path class="st0" d="M304.8,106.2c1.4-7.5,1.4-15.1,0-22.6l13.7-7.9c1.6-0.9,2.3-2.8,1.7-4.5c-3.5-11.4-9.6-21.8-17.6-30.4
	c-1.2-1.3-3.2-1.6-4.8-0.7L284.2,48c-5.8-4.9-12.4-8.7-19.6-11.3V20.9c0-1.8-1.3-3.4-3-3.8c-11.8-2.6-23.8-2.5-35.1,0
	c-1.7,0.4-3,2-3,3.8v15.8C216.4,39.2,209.8,43,204,48l-13.7-7.9c-1.5-0.9-3.5-0.6-4.8,0.7c-7.9,8.6-14,19-17.6,30.4
	c-0.5,1.7,0.2,3.6,1.7,4.5l13.7,7.9c-1.4,7.5-1.4,15.1,0,22.6l-13.7,7.9c-1.6,0.9-2.3,2.8-1.7,4.5c3.5,11.4,9.6,21.8,17.6,30.4
	c1.2,1.3,3.2,1.6,4.8,0.7l13.7-7.9c5.8,4.9,12.4,8.7,19.6,11.3v15.8c0,1.8,1.3,3.4,3,3.8c11.8,2.6,23.8,2.5,35.1,0
	c1.7-0.4,3-2,3-3.8v-15.8c7.2-2.5,13.8-6.4,19.6-11.3l13.7,7.9c1.5,0.9,3.5,0.6,4.8-0.7c7.9-8.6,14-19,17.6-30.4
	c0.5-1.7-0.2-3.6-1.7-4.5L304.8,106.2z M244.2,128c-18.3,0-33.1-14.9-33.1-33.1s14.9-33.1,33.1-33.1s33.1,14.9,33.1,33.1
	S262.4,128,244.2,128z"/>
<path class="st0" d="M410.6,81.6c49.1-0.2,49.1-75,0-75.2C361.5,6.6,361.5,81.4,410.6,81.6z"/>
<path class="st0" d="M436.4,92.3c0,0-2.8,0-2.8,0c-13.8,7.1-32.2,7.1-46,0c-22.3-1.4-41.5,16.2-41.4,38.7
	c-0.9,12.3,1.1,25,16.1,25.8c0,0,96.6,0,96.6,0c8.9,0,16.1-7.2,16.1-16.1C478.3,116.3,462.3,92.1,436.4,92.3z"/>
<path class="st0" d="M78,167.2c49.1-0.2,49.1-75,0-75.2C28.9,92.2,28.9,167,78,167.2z"/>
<path class="st0" d="M103.8,177.9c0,0-2.8,0-2.8,0c-13.8,7.1-32.2,7.1-46,0c-22.3-1.4-41.5,16.2-41.4,38.7
	c-0.9,12.3,1.1,25,16.1,25.8c0,0,96.6,0,96.6,0c8.9,0,16.1-7.2,16.1-16.1C145.7,201.9,129.7,177.6,103.8,177.9z"/>
<path class="st0" d="M58.4,262"/>
<path class="st0" d="M477.4,250.9h-44.5v-44.5c0-6.1-5-11.1-11.1-11.1h-22.3c-6.1,0-11.1,5-11.1,11.1v44.5h-44.5
	c-6.1,0-11.1,5-11.1,11.1v22.3c0,6.1,5,11.1,11.1,11.1h44.5v44.5c0,6.1,5,11.1,11.1,11.1h22.3c6.1,0,11.1-5,11.1-11.1v-44.5h44.5
	c6.1,0,11.1-5,11.1-11.1V262C488.6,255.9,483.6,250.9,477.4,250.9z"/>
</svg>
