<?xml version="1.0" encoding="utf-8"?>
<!-- Generator: Adobe Illustrator 26.3.1, SVG Export Plug-In . SVG Version: 6.00 Build 0)  -->
<svg version="1.1" xmlns="http://www.w3.org/2000/svg" xmlns:xlink="http://www.w3.org/1999/xlink" x="0px" y="0px"
	 viewBox="0 0 699 515" style="enable-background:new 0 0 699 515;" xml:space="preserve">
<style type="text/css">
	.st0{fill:#465DA7;stroke:#000000;stroke-width:13;stroke-miterlimit:10;}
	.st1{fill:#465DA7;}
</style>
<g id="Livello_2">
	<path class="st0" d="M351,461.5"/>
</g>
<g id="Livello_1">
	<path class="st1" d="M353.2,394c72.1-0.3,72.1-110,0-110.3C281.1,284,281.1,393.7,353.2,394z"/>
	<path class="st1" d="M391,409.7c0,0-4.1,0-4.1,0c-20.2,10.4-47.2,10.3-67.4,0c-32.7-2-60.9,23.8-60.8,56.7
		c-1.4,18.1,1.6,36.7,23.6,37.8c0,0,141.8,0,141.8,0c13,0,23.6-10.6,23.6-23.6C452.4,444.9,429,409.4,391,409.7z"/>
	<path class="st1" d="M440.1,149.1c2-11,2-22.2,0-33.1l20.1-11.6c2.3-1.3,3.3-4,2.6-6.6c-5.2-16.8-14.1-32-25.8-44.6
		c-1.8-1.9-4.7-2.4-7-1.1l-20.1,11.6c-8.5-7.2-18.2-12.8-28.7-16.6V23.9c0-2.6-1.9-5-4.4-5.5c-17.3-3.9-35-3.7-51.5,0
		c-2.6,0.5-4.4,2.9-4.4,5.5v23.2c-10.5,3.7-20.2,9.3-28.7,16.6L272.1,52c-2.3-1.3-5.2-0.9-7,1.1c-11.7,12.6-20.6,27.8-25.8,44.6
		c-0.8,2.6,0.3,5.3,2.6,6.6l20.1,11.6c-2,11-2,22.2,0,33.1l-20.1,11.6c-2.3,1.3-3.3,4-2.6,6.6c5.2,16.8,14.1,32,25.8,44.6
		c1.8,1.9,4.7,2.4,7,1.1l20.1-11.6c8.5,7.2,18.2,12.8,28.7,16.6v23.2c0,2.6,1.9,5,4.4,5.5c17.3,3.9,35,3.7,51.5,0
		c2.6-0.5,4.4-2.9,4.4-5.5v-23.2c10.5-3.7,20.2-9.3,28.7-16.6l20.1,11.6c2.3,1.3,5.2,0.9,7-1.1c11.7-12.6,20.6-27.8,25.8-44.6
		c0.8-2.6-0.3-5.3-2.6-6.6L440.1,149.1z M351.1,181c-26.8,0-48.5-21.8-48.5-48.5S324.4,84,351.1,84s48.5,21.8,48.5,48.5
		S377.9,181,351.1,181z"/>
	<path class="st1" d="M595.3,243.5c72.1-0.3,72.1-110,0-110.3C523.2,133.5,523.2,243.2,595.3,243.5z"/>
	<path class="st1" d="M633.1,259.3c0,0-4.1,0-4.1,0c-20.2,10.4-47.2,10.3-67.4,0c-32.7-2-60.9,23.8-60.8,56.7
		c-1.4,18.1,1.6,36.7,23.6,37.8c0,0,141.8,0,141.8,0c13,0,23.6-10.6,23.6-23.6C694.6,294.5,671.2,258.9,633.1,259.3z"/>
	<path class="st1" d="M107.3,238.5c72.1-0.3,72.1-110,0-110.3C35.2,128.5,35.2,238.2,107.3,238.5z"/>
	<path class="st1" d="M145.1,254.3c0,0-4.1,0-4.1,0c-20.2,10.4-47.2,10.3-67.4,0c-32.7-2-60.9,23.8-60.8,56.7
		c-1.4,18.1,1.6,36.7,23.6,37.8c0,0,141.8,0,141.8,0c13,0,23.6-10.6,23.6-23.6C206.6,289.5,183.2,253.9,145.1,254.3z"/>
	<path class="st1" d="M78.5,377.7"/>
</g>
</svg>
