<?xml version="1.0" encoding="utf-8"?>
<!-- Generator: Adobe Illustrator 27.8.1, SVG Export Plug-In . SVG Version: 6.00 Build 0)  -->
<svg version="1.1" id="Livello_1" xmlns="http://www.w3.org/2000/svg" xmlns:xlink="http://www.w3.org/1999/xlink" x="0px" y="0px"
	 viewBox="0 0 575 584.7" style="enable-background:new 0 0 575 584.7;" xml:space="preserve">
<style type="text/css">
	.st0{fill:#164194;}
</style>
<g id="id3:id1:id1" transform="matrix(1.25,0,0,1.25,1300.0,0.0)">
	<g transform="translate(-11.422787,753.466331) scale(0.036263,-0.038409)">
		<path class="st0" d="M-25152,19395.7c-288.5-86.3-482.6-147.4-503.4-158.8c-56.7-31.5-97-88.8-105.2-151.8
			c-3.8-29.6,25.2-132.3,393.7-1393.6c218.6-749.1,397.5-1363.3,397.5-1365.2c0-1.9-206-3.1-458-3.1h-458.6l-32.8-15.1
			c-42.2-19.5-86.9-64.3-106.5-106.5l-15.1-32.8v-947.5c0-937.4,0-948.1,12.6-974c18.9-38.4,54.2-71.2,100.8-93.9l40.9-19.5
			l705.6-1.9c428.4-1.3,720.7,0.6,744.7,4.4c69.3,10.7,117.8,44.1,149.9,102.1c34.7,64.9,26.5,170.1-17.6,219.9
			c-24.6,28.3-57.3,49.1-92,59.2c-30.2,8.8-104.6,10.1-644.5,10.1h-609.8v711.9v711.9h400h399.4l13.2-42.2
			c7.6-23.9,73.1-238.1,146.2-477.5c72.5-238.8,139.9-448.6,148.7-464.9c22.1-41,69.3-82.5,112.1-98.3
			c61.7-23.3,81.3-20.2,344.6,58.6c132.3,39.7,342.7,102.1,467.5,139.2c179.5,53.5,233.7,71.8,259.6,89.5
			c56.1,37.2,90.1,94.5,94.5,159.4c3.2,39.7-19.5,117.8-592.8,2053.8c-327.6,1106.9-602.3,2026.7-609.8,2043.1
			c-17,37.2-70.6,88.8-110.2,106.5c-16.4,6.9-46.6,13.9-67.4,15.1C-24679.5,19536.2-24722.3,19524.2-25152,19395.7z M-18854.6,18525
			c-178.3-25.2-337.7-90.1-483.8-195.3c-70.6-51-181.4-163.2-233.1-236.2c-83.2-117.2-152.5-281-178.9-425.2
			c-18.3-96.4-16.4-310,2.5-400c44.1-205.4,135.4-377.4,277.8-525.4c146.8-151.2,316.9-246.3,533.6-297.4
			c70.6-17,83.2-17.6,219.9-18.3c114,0,156.9,2.5,201.6,11.3c439.1,86.9,768,407,861.2,837.9c18.9,87.6,20.8,298.6,3.2,385.6
			c-86.9,436.6-419.6,767.3-858.1,853.6C-18598.8,18533.2-18765.1,18537.6-18854.6,18525z M-18042.5,16269
			c-148-22-293.6-76.2-420.2-155.6c-87.6-55.4-147.4-103.3-235-187.1c-109.6-105.8-204.1-172.6-341.5-241.9
			c-219.9-110.2-488.9-184-811.4-222.4c-119.1-13.9-509.7-15.8-633.1-3.2c-107.7,11.3-266.5,35.9-347.8,54.8
			c-107.1,23.9-165.1,30.2-235,26.5c-282.2-17.6-511.6-203.5-577.7-468.7c-20.2-80.6-20.2-228.1,0-305.5
			c53.6-204.1,180.8-354.1,362.2-427.1c119.1-47.2,427.1-105.8,719.5-136.7c155.6-16.4,638.8-16.4,796.9,0
			c384.9,39.1,719.5,115.9,1013.7,231.8c42.8,17,78.8,30.2,79.4,29.6c1.9-3.1,192.8-1349.5,192.2-1357.6c0-3.8-37.8-25.8-83.2-47.9
			c-660.9-318.8-1305.4-930.5-1852.8-1757.1c-256.4-387.4-538-892.7-574.6-1031.3c-32.8-124.7-34-250.1-3.8-367.3
			c70.6-273.4,285.4-472.5,567-525.4c80.6-15.1,222.4-9.5,304.9,12c159.4,42.2,309.3,145.5,399.4,276.6
			c17.6,25.2,58.6,95.8,90.1,156.2c269.6,510.9,550,933.7,834.7,1256.8c136.1,155,350.9,355.3,489.5,458
			c299.2,221.8,604.2,349,892.7,373.6c230.6,19.5,486.4,204.1,630.6,454.9c79.4,138.6,127.9,339.6,115.9,483.2
			c-10.7,134.8-251.4,1849-339.6,2416.7c-51,333.3-67.4,400-126,517.9c-120.3,243.2-340.2,413.9-609.8,474.4
			C-17789.2,16267.1-17998.4,16275.3-18042.5,16269z M-16025.2,14786.6c-42.8-17-80.6-50.4-102.1-89.5l-18.9-34l-3.2-1615.9
			c-3.2-1524-3.8-1617.8-14.5-1653.1c-37.8-126.6-127.3-219.2-260.8-270.3l-36.5-13.9l-919.8-3.2l-919.8-3.1l-35.9-17.6
			c-44.7-22-94.5-75-108.4-115.3c-32.1-95.1,15.1-194,115.3-241.3l35.3-16.4l496.4-1.9l495.8-1.9V9569.6v-1139l-174.5-2.5
			l-175.1-1.9l-35.9-17.6c-40.3-20.2-69.9-50.4-89.5-92c-10.1-22.7-12.6-42.2-13.2-85.7c0-49.8,2.5-61.1,17.6-92.6
			c20.2-41.6,44.1-63.6,92.6-86.3l34.7-16.4h526c593.5,0,559.4-2.5,616.1,49.8c34,31.5,49.1,60.5,57.3,108.4
			c15.1,97-24.6,177.7-106.5,216.1c-34,16.4-37.2,16.4-206,18.3l-172,1.9v1152.9v1152.3h238.1c257,0.6,290.4,3.2,390,35.3
			c116.5,37.2,221.8,102.1,313.7,194.7c89.5,89.5,151.8,190.3,191.5,309.3c40.3,121,38.4,16.4,38.4,1770.3
			c0,1759.6,3.1,1629.8-39.7,1685.2c-10.7,14.5-35.3,35.3-54.2,45.4c-29.6,17-42.2,19.5-88.2,21.4
			C-15983,14798.6-16001.9,14796.1-16025.2,14786.6z M-28111.1,13702.4c-58-12-108.4-49.1-138-102.1l-18.3-33.4v-535.5V12496
			l17-32.1c20.2-37.8,58.6-74.3,98.9-93.2l29-13.2h3537.4c3464.3,0,3538.1,0,3568.3,12c41.6,15.8,80.6,52.9,98.9,93.9l15.1,32.8
			l1.9,519.1c1.9,580.9,3.2,558.8-42.8,616.8c-17.6,22.7-36.5,37.8-67.4,52.9l-42.8,20.8l-3515.4,0.6
			C-26502.7,13706.8-28096.6,13704.9-28111.1,13702.4z M-27588.8,9918c1.9-1954.9,2.5-2047.5,13.2-2075.2
			c15.8-40.3,49.8-78.7,88.8-98.9l32.1-17l2855.1-1.9c2847.6-1.3,2855.1-1.3,2889.2,11.3c46.6,17.6,81.9,49.8,104.6,95.8l19.5,38.4
			v2046.9v2046.2h-3001.9h-3001.9L-27588.8,9918z"/>
	</g>
</g>
</svg>
