<?xml version="1.0" encoding="utf-8"?>
<!-- Generator: Adobe Illustrator 25.1.0, SVG Export Plug-In . SVG Version: 6.00 Build 0)  -->
<svg version="1.1" id="Livello_1" xmlns="http://www.w3.org/2000/svg" xmlns:xlink="http://www.w3.org/1999/xlink" x="0px" y="0px"
     viewBox="0 0 3868.66 485.26" style="enable-background:new 0 0 3868.66 485.26;" xml:space="preserve">
<style type="text/css">
	.Stile_x0020_grafica{fill:#BB271D;}
	.st0{fill:#FFFFFF;}
	.st1{display:none;}
	.st2{display:inline;fill:url(#SVGID_3_);}
	.st3{fill:url(#SVGID_4_);}
	.st4{opacity:0.7;}
	.st5{fill:url(#SVGID_5_);}
	.st6{opacity:0.49;}
	.st7{fill:none;stroke:#D31216;stroke-width:0.25;stroke-miterlimit:1;}
	.st8{opacity:0.58;}
	.st9{fill:#9D1915;}
	.st10{fill:url(#SVGID_6_);}
	.st11{fill:url(#SVGID_7_);}
	.st12{fill:url(#SVGID_8_);}
	.st13{fill:url(#SVGID_9_);}
	.st14{fill:#BB271D;}
</style>
    <rect class="Stile_x0020_grafica" width="481.89" height="485.26"/>
    <rect x="14.29" y="16.57" class="st0" width="455.31" height="449.83"/>
    <g>
	<defs>
		<rect id="SVGID_1_" width="481.89" height="566.93"/>
	</defs>
        <clipPath id="SVGID_2_">
		<use xlink:href="#SVGID_1_"  style="overflow:visible;"/>
	</clipPath>
</g>
    <g class="st1">

		<linearGradient id="SVGID_3_" gradientUnits="userSpaceOnUse" x1="0.3349" y1="566.7673" x2="1.3689" y2="566.7673" gradientTransform="matrix(-2.060000e-05 -470.2343 -470.2343 2.060000e-05 266828.875 429.9808)">
		<stop  offset="0" style="stop-color:#BC251C"/>
            <stop  offset="0.0877" style="stop-color:#BF3021"/>
            <stop  offset="0.2439" style="stop-color:#C74B34"/>
            <stop  offset="0.4505" style="stop-color:#D4785D"/>
            <stop  offset="0.6996" style="stop-color:#E7B5A1"/>
            <stop  offset="0.9823" style="stop-color:#FFFEFE"/>
            <stop  offset="0.9857" style="stop-color:#FFFFFF"/>
            <stop  offset="1" style="stop-color:#FFFFFF"/>
	</linearGradient>
        <polygon class="st2" points="90.46,265.07 86.67,-118.07 528.67,-118.07 544.23,265.07 	"/>
</g>
    <g>

		<linearGradient id="SVGID_4_" gradientUnits="userSpaceOnUse" x1="-8095.9526" y1="-7720.3784" x2="-8095.9526" y2="-8095.9341" gradientTransform="matrix(1 0 0 1 8190.7949 8145.6416)">
		<stop  offset="0" style="stop-color:#BB271D"/>
            <stop  offset="0.3121" style="stop-color:#BB271D"/>
            <stop  offset="0.3657" style="stop-color:#BB271D"/>
            <stop  offset="0.726" style="stop-color:#BB271D"/>
            <stop  offset="0.9831" style="stop-color:#BB271D"/>
	</linearGradient>
        <path class="st3" d="M121.1,49.71C-72.84,220.6,267.5,208.26,22.88,425.26h97.95C267.16,199.26,7.16,232.93,121.1,49.71"/>
        <g class="st4">

			<linearGradient id="SVGID_5_" gradientUnits="userSpaceOnUse" x1="-8095.9526" y1="-8095.9341" x2="-8095.9526" y2="-7720.3784" gradientTransform="matrix(1 0 0 1 8190.7949 8145.6416)">
			<stop  offset="0" style="stop-color:#FFFFFF;stop-opacity:0.77"/>
                <stop  offset="0.45" style="stop-color:#FFFFFF;stop-opacity:0"/>
                <stop  offset="0.464" style="stop-color:#F7E5E4;stop-opacity:4.085026e-03"/>
                <stop  offset="0.4885" style="stop-color:#EBBEBB;stop-opacity:0.0112"/>
                <stop  offset="0.516" style="stop-color:#DF9A95;stop-opacity:0.0192"/>
                <stop  offset="0.546" style="stop-color:#D67B75;stop-opacity:0.0279"/>
                <stop  offset="0.5791" style="stop-color:#CE6159;stop-opacity:0.0376"/>
                <stop  offset="0.6165" style="stop-color:#C74C43;stop-opacity:0.0484"/>
                <stop  offset="0.6601" style="stop-color:#C23C32;stop-opacity:0.0611"/>
                <stop  offset="0.7141" style="stop-color:#BF3027;stop-opacity:0.0768"/>
                <stop  offset="0.7898" style="stop-color:#BD2A20;stop-opacity:0.0989"/>
                <stop  offset="1" style="stop-color:#BC281E;stop-opacity:0.16"/>
		</linearGradient>
            <path class="st5" d="M121.1,49.71C-72.84,220.6,267.5,208.26,22.88,425.26h97.95C267.16,199.26,7.16,232.93,121.1,49.71"/>
	</g>
        <g class="st6">
		<path class="st0" d="M26.03,424.31c23.63-21.17,46.52-43.93,64.64-70.11c12.35-17.84,22.97-38.09,25.41-59.95
			c1.47-13.13-0.2-26.36-4.63-38.79c-4.93-13.84-12.83-26.35-20.99-38.47c-8.89-13.22-18.5-26.25-24.78-40.99
			c-5.88-13.81-7.79-28.74-4.28-43.43c2.75-11.49,8.2-22.17,14.72-31.95c8.54-12.82,18.97-24.34,29.95-35.1
			c3.22-3.15,6.5-6.24,9.82-9.28c0-0.17,0-0.33,0-0.5c-12.55,21.39-23.5,45-25.58,70.03c-1.32,15.94,1.44,31.75,8.02,46.33
			c6.79,15.03,16.84,28.25,26.85,41.25c8.04,10.44,16.17,20.85,23,32.14c6.93,11.45,12.39,23.8,15.17,36.93
			c3.61,17.01,2.55,34.56-1.35,51.42c-5.26,22.76-15.18,44.3-26.53,64.61c-3.64,6.52-7.46,12.93-11.43,19.26
			c-1.02,1.63-2.05,3.26-3.09,4.88c-0.22,0.34-0.51,1.07-0.86,1.23c-0.2,0.1-0.68,0-0.9,0c-3.91,0-7.82,0-11.72,0
			c-14.87,0-29.73,0-44.6,0c-11.67,0-23.33,0-35,0c-0.62,0-1.23,0-1.85,0C26.02,423.81,26.02,424.31,26.03,424.31
			c8.58,0,17.15,0,25.73,0c15.53,0,31.06,0,46.58,0c5.56,0,11.12,0,16.68,0c1.43,0,2.87,0,4.3,0c0.19,0,0.63,0.09,0.81,0
			c0.38-0.19,0.99-1.47,1.23-1.85c1.1-1.72,2.19-3.44,3.26-5.17c13.51-21.67,25.73-44.56,33.52-68.96
			c5.02-15.71,8.04-32.16,7.41-48.7c-0.54-14-3.94-27.7-9.77-40.42c-5.44-11.87-12.75-22.73-20.52-33.18
			c-9.13-12.27-18.95-24.05-27.24-36.92c-8.96-13.91-15.75-29.2-17.52-45.79c-2.51-23.46,4.92-46.78,14.99-67.68
			c3.19-6.62,6.7-13.07,10.42-19.41c0.06-0.1-0.08-0.43,0-0.5C103.74,66.86,92.06,78.66,82.06,91.8c-7.61,10-14.34,20.9-18.48,32.82
			c-3.27,9.41-4.72,19.4-3.83,29.34c1.41,15.73,8.75,29.99,17.07,43.13c16.02,25.29,36.68,49.44,39.46,80.49
			c2.19,24.54-7.68,48.1-20.53,68.44c-16.2,25.65-37.52,47.95-59.62,68.56c-3.34,3.11-6.71,6.18-10.11,9.23
			C25.94,423.89,26.11,424.24,26.03,424.31z"/>
	</g>
        <path class="st7" d="M121.1,49.71C-72.84,220.6,267.5,208.26,22.88,425.26h97.95C267.16,199.26,7.16,232.93,121.1,49.71"/>
        <g class="st8">
		<path class="st9" d="M121.1,49.08c-15.55,13.71-30.52,28.46-42.66,45.33c-8.02,11.14-14.9,23.46-18.17,36.9
			c-2.4,9.87-2.66,20.31-0.66,30.28c1.96,9.79,6.04,19.01,10.91,27.68c5.12,9.11,11.1,17.7,16.96,26.34
			c5.98,8.81,11.88,17.71,16.74,27.2c4.88,9.52,8.64,19.66,10.26,30.27c1.94,12.69,0.46,25.5-3.32,37.72
			c-4.93,15.94-13.39,30.62-23.02,44.16c-14.2,19.97-31.19,37.9-48.94,54.73c-5.36,5.08-10.81,10.06-16.33,14.96
			c-0.09,0.08,0.05,1.25,0,1.25c13.46,0,26.93,0,40.39,0c17.92,0,35.83,0,53.75,0c0.96,0,2.89,0.39,3.79,0
			c0.69-0.3,1.8-2.77,2.22-3.43c1.12-1.76,2.23-3.53,3.33-5.31c2.12-3.42,4.19-6.86,6.21-10.33c6.96-11.92,13.37-24.17,18.83-36.86
			c8.07-18.76,14.21-38.74,15.25-59.24c0.75-14.7-1.09-29.38-6.07-43.26c-4.65-12.97-11.74-24.87-19.68-36.07
			c-7.72-10.9-16.23-21.22-24.09-32.02c-7.71-10.58-14.83-21.72-19.53-33.99c-5.31-13.86-7.05-28.64-5.16-43.37
			c2.51-19.59,10.26-38.23,19.57-55.49c2.96-5.5,6.12-10.88,9.41-16.18C121.29,50.03,120.92,49.38,121.1,49.08
			c-11.5,18.53-21.74,38.42-26.79,59.77c-3.34,14.12-4.15,28.99-1.26,43.27c2.62,12.93,8.26,24.95,15.26,36.06
			c7.1,11.26,15.46,21.66,23.53,32.22c8.2,10.73,16.17,21.71,22.37,33.74c6.65,12.89,10.99,26.84,12.21,41.31
			c1.64,19.39-2.43,38.91-8.74,57.16c-4.13,11.93-9.3,23.5-15.07,34.72c-3.33,6.49-6.87,12.88-10.57,19.17
			c-1.95,3.32-3.94,6.61-5.97,9.88c-1.1,1.78-2.22,3.55-3.35,5.32c-0.44,0.69-1.26,2.67-1.94,2.94c-1,0.39-2.95,0-4,0
			c-3.11,0-6.23,0-9.34,0c-9.56,0-19.12,0-28.68,0c-17.59,0-35.17,0-52.76,0c-1.04,0-2.09,0-3.13,0c0,0.42,0,0.83,0,1.25
			c20.03-17.78,39.35-36.61,56.1-57.55c11.35-14.19,21.69-29.54,28.63-46.41c4.9-11.93,7.83-24.55,7.82-37.48
			c-0.01-10.83-2.16-21.44-6.06-31.53c-3.85-9.94-9.2-19.22-14.96-28.17c-5.73-8.89-11.91-17.49-17.62-26.4
			c-5.47-8.52-10.56-17.39-14.03-26.94c-3.59-9.89-5.24-20.4-3.94-30.88c1.56-12.61,6.69-24.49,13.25-35.27
			c9.78-16.07,22.68-30.16,36.21-43.14c4.19-4.02,8.48-7.94,12.83-11.78C121.31,50.15,120.9,49.26,121.1,49.08L121.1,49.08z"/>
	</g>
</g>
    <g>

		<linearGradient id="SVGID_6_" gradientUnits="userSpaceOnUse" x1="-7808.0894" y1="-7720.3784" x2="-7808.0894" y2="-8095.9341" gradientTransform="matrix(1 0 0 1 8190.7949 8145.6416)">
		<stop  offset="0" style="stop-color:#BB271D"/>
            <stop  offset="0.3121" style="stop-color:#BB271D"/>
            <stop  offset="0.3657" style="stop-color:#BB271D"/>
            <stop  offset="0.726" style="stop-color:#BB271D"/>
            <stop  offset="0.9831" style="stop-color:#BB271D"/>
	</linearGradient>
        <path class="st10" d="M408.96,49.71C215.02,220.6,555.36,208.26,310.74,425.26h97.95C555.02,199.26,295.02,232.93,408.96,49.71"/>
        <g class="st4">

			<linearGradient id="SVGID_7_" gradientUnits="userSpaceOnUse" x1="-7808.0894" y1="-8095.9341" x2="-7808.0894" y2="-7720.3784" gradientTransform="matrix(1 0 0 1 8190.7949 8145.6416)">
			<stop  offset="0" style="stop-color:#FFFFFF;stop-opacity:0.77"/>
                <stop  offset="0.45" style="stop-color:#FFFFFF;stop-opacity:0"/>
                <stop  offset="0.464" style="stop-color:#F7E5E4;stop-opacity:4.085026e-03"/>
                <stop  offset="0.4885" style="stop-color:#EBBEBB;stop-opacity:0.0112"/>
                <stop  offset="0.516" style="stop-color:#DF9A95;stop-opacity:0.0192"/>
                <stop  offset="0.546" style="stop-color:#D67B75;stop-opacity:0.0279"/>
                <stop  offset="0.5791" style="stop-color:#CE6159;stop-opacity:0.0376"/>
                <stop  offset="0.6165" style="stop-color:#C74C43;stop-opacity:0.0484"/>
                <stop  offset="0.6601" style="stop-color:#C23C32;stop-opacity:0.0611"/>
                <stop  offset="0.7141" style="stop-color:#BF3027;stop-opacity:0.0768"/>
                <stop  offset="0.7898" style="stop-color:#BD2A20;stop-opacity:0.0989"/>
                <stop  offset="1" style="stop-color:#BC281E;stop-opacity:0.16"/>
		</linearGradient>
            <path class="st11" d="M408.96,49.71C215.02,220.6,555.36,208.26,310.74,425.26h97.95C555.02,199.26,295.02,232.93,408.96,49.71"/>
	</g>
        <g class="st6">
		<path class="st0" d="M313.89,424.31c23.63-21.17,46.52-43.93,64.64-70.11c12.35-17.84,22.97-38.09,25.41-59.95
			c1.47-13.13-0.2-26.36-4.63-38.79c-4.93-13.84-12.83-26.35-20.99-38.47c-8.89-13.22-18.5-26.25-24.78-40.99
			c-5.88-13.81-7.79-28.74-4.28-43.43c2.75-11.49,8.2-22.17,14.72-31.95c8.54-12.82,18.97-24.34,29.95-35.1
			c3.22-3.15,6.5-6.24,9.82-9.28c0-0.17,0-0.33,0-0.5c-12.51,21.33-23.43,44.86-25.56,69.81c-1.36,15.95,1.36,31.78,7.92,46.38
			c6.76,15.04,16.8,28.27,26.81,41.26c8.03,10.43,16.16,20.83,23,32.09c6.96,11.46,12.44,23.81,15.26,36.96
			c3.67,17.17,2.58,34.88-1.39,51.89c-5.3,22.74-15.23,44.26-26.59,64.56c-3.66,6.53-7.5,12.97-11.47,19.31
			c-0.96,1.53-1.93,3.06-2.91,4.58c-0.21,0.33-0.52,1.07-0.89,1.23c-0.2,0.09-0.67,0-0.88,0c-3.95,0-7.9,0-11.85,0
			c-14.88,0-29.77,0-44.65,0c-11.61,0-23.21,0-34.82,0c-0.62,0-1.23,0-1.85,0C313.89,423.81,313.89,424.31,313.89,424.31
			c8.58,0,17.15,0,25.73,0c15.48,0,30.95,0,46.43,0c5.61,0,11.23,0,16.84,0c1.42,0,2.84,0,4.26,0c0.2,0,0.66,0.09,0.84,0
			c0.42-0.21,0.79-1.15,1.04-1.54c1.1-1.72,2.2-3.45,3.28-5.18c13.61-21.79,25.91-44.81,33.74-69.37c4.99-15.68,8-32.07,7.37-48.57
			c-0.54-13.98-3.92-27.64-9.73-40.35c-5.45-11.94-12.82-22.86-20.64-33.36c-9.11-12.23-18.9-23.98-27.17-36.82
			c-8.96-13.91-15.75-29.2-17.52-45.79c-2.51-23.46,4.92-46.78,14.99-67.68c3.19-6.62,6.7-13.07,10.42-19.41
			c0.06-0.1-0.08-0.43,0-0.5c-12.16,11.13-23.83,22.93-33.83,36.06c-7.61,10-14.34,20.9-18.48,32.82
			c-3.27,9.41-4.72,19.4-3.83,29.34c1.41,15.73,8.75,29.99,17.07,43.13c16.02,25.29,36.68,49.44,39.46,80.49
			c2.19,24.54-7.68,48.1-20.53,68.44c-16.2,25.65-37.52,47.95-59.62,68.56c-3.34,3.11-6.71,6.18-10.11,9.23
			C313.81,423.89,313.97,424.24,313.89,424.31z"/>
	</g>
        <path class="st7" d="M408.96,49.71C215.02,220.6,555.36,208.26,310.74,425.26h97.95C555.02,199.26,295.02,232.93,408.96,49.71"/>
        <g class="st8">
		<path class="st9" d="M408.96,49.08c-15.55,13.71-30.52,28.46-42.66,45.33c-8.02,11.14-14.9,23.46-18.17,36.9
			c-2.4,9.87-2.66,20.31-0.66,30.28c1.96,9.79,6.04,19.01,10.91,27.68c5.12,9.11,11.1,17.7,16.96,26.34
			c5.98,8.81,11.88,17.71,16.74,27.2c4.88,9.52,8.64,19.66,10.26,30.27c1.94,12.69,0.46,25.5-3.32,37.72
			c-4.93,15.94-13.39,30.62-23.02,44.16c-14.2,19.97-31.19,37.9-48.94,54.73c-5.36,5.08-10.81,10.06-16.33,14.96
			c-0.09,0.08,0.05,1.25,0,1.25c13.46,0,26.93,0,40.39,0c17.92,0,35.83,0,53.75,0c0.96,0,2.89,0.39,3.79,0
			c0.69-0.3,1.8-2.77,2.22-3.43c1.12-1.76,2.23-3.53,3.33-5.31c2.12-3.42,4.19-6.86,6.21-10.33c6.96-11.92,13.37-24.17,18.83-36.86
			c8.07-18.76,14.21-38.74,15.25-59.24c0.75-14.7-1.09-29.38-6.07-43.26c-4.65-12.97-11.74-24.87-19.68-36.07
			c-7.72-10.9-16.23-21.22-24.09-32.02c-7.71-10.58-14.83-21.72-19.53-33.99c-5.31-13.86-7.05-28.64-5.16-43.37
			c2.51-19.59,10.26-38.23,19.57-55.49c2.96-5.5,6.12-10.88,9.41-16.18C409.15,50.03,408.78,49.38,408.96,49.08
			c-11.5,18.53-21.74,38.42-26.79,59.77c-3.34,14.12-4.15,28.99-1.26,43.27c2.62,12.93,8.26,24.95,15.26,36.06
			c7.1,11.26,15.46,21.66,23.53,32.22c8.2,10.73,16.17,21.71,22.37,33.74c6.65,12.89,10.99,26.84,12.21,41.31
			c1.64,19.39-2.43,38.91-8.74,57.16c-4.13,11.93-9.3,23.5-15.07,34.72c-3.33,6.49-6.87,12.88-10.57,19.17
			c-1.95,3.32-3.94,6.61-5.97,9.88c-1.1,1.78-2.22,3.55-3.35,5.32c-0.44,0.69-1.26,2.67-1.94,2.94c-1,0.39-2.95,0-4,0
			c-3.11,0-6.23,0-9.34,0c-9.56,0-19.12,0-28.68,0c-17.59,0-35.17,0-52.76,0c-1.04,0-2.09,0-3.13,0c0,0.42,0,0.83,0,1.25
			c20.03-17.78,39.35-36.61,56.1-57.55c11.35-14.19,21.69-29.54,28.63-46.41c4.9-11.93,7.83-24.55,7.82-37.48
			c-0.01-10.83-2.16-21.44-6.06-31.53c-3.85-9.94-9.2-19.22-14.96-28.17c-5.73-8.89-11.91-17.49-17.62-26.4
			c-5.47-8.52-10.56-17.39-14.03-26.94c-3.59-9.89-5.24-20.4-3.94-30.88c1.56-12.61,6.69-24.49,13.25-35.27
			c9.78-16.07,22.68-30.16,36.21-43.14c4.19-4.02,8.48-7.94,12.83-11.78C409.18,50.15,408.76,49.26,408.96,49.08L408.96,49.08z"/>
	</g>
</g>
    <g>

		<linearGradient id="SVGID_8_" gradientUnits="userSpaceOnUse" x1="-7952.021" y1="-7720.3784" x2="-7952.021" y2="-8095.9341" gradientTransform="matrix(1 0 0 1 8190.7949 8145.6416)">
		<stop  offset="0" style="stop-color:#BB271D"/>
            <stop  offset="0.3121" style="stop-color:#BB271D"/>
            <stop  offset="0.3657" style="stop-color:#BB271D"/>
            <stop  offset="0.726" style="stop-color:#BB271D"/>
            <stop  offset="0.9831" style="stop-color:#BB271D"/>
	</linearGradient>
        <path class="st12" d="M265.03,49.71C71.09,220.6,411.43,208.26,166.81,425.26h97.95C411.09,199.26,151.09,232.93,265.03,49.71"/>
        <g class="st4">

			<linearGradient id="SVGID_9_" gradientUnits="userSpaceOnUse" x1="-7952.021" y1="-8095.9341" x2="-7952.021" y2="-7720.3784" gradientTransform="matrix(1 0 0 1 8190.7949 8145.6416)">
			<stop  offset="0" style="stop-color:#FFFFFF;stop-opacity:0.77"/>
                <stop  offset="0.45" style="stop-color:#FFFFFF;stop-opacity:0"/>
                <stop  offset="0.464" style="stop-color:#F7E5E4;stop-opacity:4.085026e-03"/>
                <stop  offset="0.4885" style="stop-color:#EBBEBB;stop-opacity:0.0112"/>
                <stop  offset="0.516" style="stop-color:#DF9A95;stop-opacity:0.0192"/>
                <stop  offset="0.546" style="stop-color:#D67B75;stop-opacity:0.0279"/>
                <stop  offset="0.5791" style="stop-color:#CE6159;stop-opacity:0.0376"/>
                <stop  offset="0.6165" style="stop-color:#C74C43;stop-opacity:0.0484"/>
                <stop  offset="0.6601" style="stop-color:#C23C32;stop-opacity:0.0611"/>
                <stop  offset="0.7141" style="stop-color:#BF3027;stop-opacity:0.0768"/>
                <stop  offset="0.7898" style="stop-color:#BD2A20;stop-opacity:0.0989"/>
                <stop  offset="1" style="stop-color:#BC281E;stop-opacity:0.16"/>
		</linearGradient>
            <path class="st13" d="M265.03,49.71C71.09,220.6,411.43,208.26,166.81,425.26h97.95C411.09,199.26,151.09,232.93,265.03,49.71"/>
	</g>
        <g class="st6">
		<path class="st0" d="M169.96,424.31c23.63-21.17,46.52-43.93,64.64-70.11c12.35-17.84,22.97-38.09,25.41-59.95
			c1.47-13.13-0.2-26.36-4.63-38.79c-4.93-13.84-12.83-26.35-20.99-38.48c-8.89-13.22-18.5-26.25-24.78-40.99
			c-5.88-13.81-7.79-28.74-4.28-43.43c2.75-11.49,8.2-22.17,14.72-31.95c8.54-12.82,18.97-24.34,29.95-35.1
			c3.22-3.15,6.5-6.24,9.82-9.28c0-0.17,0-0.33,0-0.5c-12.51,21.32-23.43,44.86-25.56,69.81c-1.36,15.95,1.36,31.78,7.92,46.38
			c6.76,15.04,16.8,28.27,26.81,41.26c8.03,10.43,16.16,20.83,23,32.09c6.96,11.46,12.44,23.81,15.26,36.96
			c3.67,17.17,2.58,34.88-1.38,51.89c-5.3,22.74-15.23,44.26-26.59,64.56c-3.66,6.53-7.5,12.97-11.47,19.31
			c-0.96,1.53-1.93,3.06-2.91,4.58c-0.21,0.33-0.52,1.07-0.89,1.23c-0.2,0.09-0.67,0-0.88,0c-3.95,0-7.9,0-11.86,0
			c-14.88,0-29.77,0-44.65,0c-11.61,0-23.21,0-34.82,0c-0.62,0-1.23,0-1.85,0C169.95,423.81,169.95,424.31,169.96,424.31
			c8.58,0,17.15,0,25.73,0c15.48,0,30.95,0,46.43,0c5.61,0,11.23,0,16.84,0c1.42,0,2.84,0,4.26,0c0.2,0,0.66,0.09,0.84,0
			c0.42-0.21,0.79-1.15,1.04-1.54c1.1-1.72,2.2-3.45,3.28-5.18c13.6-21.79,25.91-44.81,33.74-69.37c4.99-15.68,8-32.07,7.37-48.57
			c-0.54-13.98-3.92-27.64-9.73-40.35c-5.45-11.94-12.82-22.86-20.64-33.36c-9.11-12.23-18.9-23.98-27.17-36.82
			c-8.96-13.91-15.75-29.2-17.52-45.79c-2.51-23.46,4.92-46.78,14.99-67.68c3.19-6.62,6.7-13.07,10.42-19.41
			c0.06-0.1-0.08-0.43,0-0.5C247.67,66.86,235.99,78.66,226,91.8c-7.61,10-14.34,20.9-18.48,32.82c-3.27,9.41-4.72,19.4-3.83,29.34
			c1.41,15.73,8.75,29.99,17.07,43.13c16.02,25.29,36.68,49.44,39.46,80.49c2.19,24.54-7.68,48.1-20.53,68.44
			c-16.2,25.65-37.52,47.95-59.62,68.56c-3.34,3.11-6.71,6.18-10.11,9.23C169.87,423.89,170.04,424.24,169.96,424.31z"/>
	</g>
        <path class="st7" d="M265.03,49.71C71.09,220.6,411.43,208.26,166.81,425.26h97.95C411.09,199.26,151.09,232.93,265.03,49.71"/>
        <g class="st8">
		<path class="st9" d="M265.03,49.08c-15.55,13.71-30.52,28.46-42.66,45.33c-8.02,11.14-14.9,23.46-18.17,36.9
			c-2.4,9.87-2.66,20.31-0.66,30.28c1.96,9.79,6.04,19.01,10.91,27.68c5.12,9.11,11.1,17.7,16.96,26.34
			c5.98,8.81,11.88,17.71,16.74,27.2c4.88,9.52,8.64,19.66,10.26,30.27c1.94,12.69,0.46,25.5-3.32,37.72
			c-4.93,15.94-13.39,30.62-23.02,44.16c-14.2,19.97-31.19,37.9-48.94,54.73c-5.36,5.08-10.81,10.06-16.33,14.96
			c-0.09,0.08,0.05,1.25,0,1.25c13.46,0,26.93,0,40.39,0c17.92,0,35.83,0,53.75,0c0.96,0,2.89,0.39,3.79,0
			c0.69-0.3,1.8-2.77,2.22-3.43c1.12-1.76,2.23-3.53,3.33-5.31c2.12-3.42,4.19-6.86,6.21-10.33c6.96-11.92,13.37-24.17,18.83-36.86
			c8.07-18.76,14.21-38.74,15.25-59.24c0.75-14.7-1.09-29.38-6.07-43.26c-4.65-12.97-11.74-24.87-19.68-36.07
			c-7.72-10.9-16.23-21.22-24.09-32.02c-7.71-10.58-14.83-21.72-19.53-33.99c-5.31-13.86-7.05-28.64-5.16-43.37
			c2.51-19.59,10.26-38.23,19.57-55.49c2.96-5.5,6.12-10.88,9.41-16.18C265.22,50.03,264.85,49.38,265.03,49.08
			c-11.5,18.53-21.74,38.42-26.79,59.77c-3.34,14.12-4.15,28.99-1.26,43.27c2.62,12.93,8.26,24.95,15.26,36.06
			c7.1,11.26,15.46,21.66,23.53,32.22c8.2,10.73,16.17,21.71,22.37,33.74c6.65,12.89,10.99,26.84,12.21,41.31
			c1.64,19.39-2.43,38.91-8.74,57.16c-4.13,11.93-9.3,23.5-15.07,34.72c-3.33,6.49-6.87,12.88-10.57,19.17
			c-1.95,3.32-3.94,6.61-5.97,9.88c-1.1,1.78-2.22,3.55-3.35,5.32c-0.44,0.69-1.26,2.67-1.94,2.94c-1,0.39-2.95,0-4,0
			c-3.11,0-6.23,0-9.34,0c-9.56,0-19.12,0-28.68,0c-17.59,0-35.17,0-52.76,0c-1.04,0-2.09,0-3.13,0c0,0.42,0,0.83,0,1.25
			c20.03-17.78,39.35-36.61,56.1-57.55c11.35-14.19,21.69-29.54,28.63-46.41c4.9-11.93,7.83-24.55,7.82-37.48
			c-0.01-10.83-2.16-21.44-6.06-31.53c-3.85-9.94-9.2-19.22-14.96-28.17c-5.73-8.89-11.91-17.49-17.62-26.4
			c-5.47-8.52-10.56-17.39-14.03-26.94c-3.59-9.89-5.24-20.4-3.94-30.88c1.56-12.61,6.69-24.49,13.25-35.27
			c9.78-16.07,22.68-30.16,36.21-43.14c4.19-4.02,8.48-7.94,12.83-11.78C265.24,50.15,264.83,49.26,265.03,49.08L265.03,49.08z"/>
	</g>
</g>
    <g>
	<path class="st14" d="M883.27,119.62H670.98v82.44h186.06v68.06H670.98v147.73h-93.65V48.8h305.94V119.62z"/>
        <path class="st14" d="M1226.65,164.44v-6.09c0-30.99-27.47-48.69-74.92-48.69c-44.33,0-71.18,14.39-71.18,37.62
		c0,15.49,12.49,26,38.09,31.54l84.29,17.15c46.2,9.96,71.8,19.92,91.78,36.52c21.23,17.15,31.84,40.94,31.84,70.27
		c0,76.36-66.18,123.39-174.2,123.39c-112.38,0-177.32-47.58-177.94-130.03h93.65c1.87,42.05,28.72,60.86,85.54,60.86
		c48.08,0,77.42-15.49,77.42-41.5c0-18.26-14.99-30.98-44.95-37.63l-75.55-16.6c-44.33-9.41-71.8-19.92-90.53-34.3
		c-21.23-15.49-33.09-42.6-33.09-72.48c0-71.38,61.81-113.98,167.33-113.98c67.43,0,114.88,17.71,141.73,52.56
		c13.74,18.26,20.6,38.18,24.35,71.38H1226.65z"/>
        <path class="st14" d="M1758.59,119.62h-216.65v71.93h189.18v65.29h-189.18v90.19h220.4v70.82h-314.05V48.8h310.31V119.62z"/>
</g>
    <g>
	<path class="st14" d="M1997.42,417.53h-59.2V49.21h59.2V417.53z"/>
        <path class="st14" d="M2295.27,417.53h-59.2V95.05h-129.61V49.21h318.41v45.83h-129.61V417.53z"/>
        <path class="st14" d="M2553.86,307.09l-42.37,110.44h-62.93l152.66-368.32h63.56l153.29,368.32h-64.8l-42.99-110.44H2553.86z
		 M2632.37,106.09l-61.06,156.82h122.13L2632.37,106.09z"/>
        <path class="st14" d="M2986.92,371.7h216.22v45.83h-275.41V49.21h59.2V371.7z"/>
        <path class="st14" d="M3378.22,417.53h-59.2V49.21h59.2V417.53z"/>
        <path class="st14" d="M3592.57,307.09l-42.37,110.44h-62.93l152.66-368.32h63.56l153.29,368.32h-64.8l-42.99-110.44H3592.57z
		 M3671.08,106.09l-61.06,156.82h122.13L3671.08,106.09z"/>
</g>
</svg>
