<?xml version="1.0" encoding="utf-8"?>
<!-- Generator: Adobe Illustrator 25.4.1, SVG Export Plug-In . SVG Version: 6.00 Build 0)  -->
<svg version="1.1" id="Livello_1" xmlns="http://www.w3.org/2000/svg" xmlns:xlink="http://www.w3.org/1999/xlink" x="0px" y="0px"
	 viewBox="0 0 2120 442" style="enable-background:new 0 0 2120 442;" xml:space="preserve">
<style type="text/css">
	.st0{fill:#9A1915;}
	.st1{fill:#FFFFFF;}
	.st2{font-family:'Arial';}
	.st3{font-size:437.9802px; font-weight: bold;}
	.st4{font-family:'Arial';}
</style>
<g>
	<path class="st0" d="M222.7,9.1c0,0-46.7-5.3-81.3,11.8c-34.6,17.1-53.7,43-85.2,86.6C24.7,151,10.5,197.8,13.6,225.9
		c3.1,28-17.7,61.7,5.9,92.9c23.6,31.1,81.9,74.7,105.5,91.8c23.6,17.1,47.2,32.7,126,15.5c78.7-17.1,130.7-29.5,168.5-138.5
		c37.8-108.9-12.6-168-28.3-186.7c-15.8-18.7-66.2-60.7-83.5-70C290.4,21.5,260.5,9.1,222.7,9.1z"/>
	<g>
		<g>
			<path class="st1" d="M223.9,38c-100,0-181.1,80.1-181.1,178.9c0,98.8,81.1,178.9,181.1,178.9S405,315.7,405,216.9
				C405,118.1,323.9,38,223.9,38z M223.9,381.3c-91.9,0-166.3-73.6-166.3-164.3c0-90.8,74.5-164.3,166.3-164.3
				c91.9,0,166.3,73.6,166.3,164.3C390.2,307.7,315.7,381.3,223.9,381.3z"/>
		</g>
	</g>
	<g>
		<path class="st1" d="M87.5,279.3l38.1-19.4l4.5,8.5L92,287.8L87.5,279.3z"/>
		<path class="st1" d="M121.5,253.6l-42.1,8.3l-2.2-11l13.7-11.7c3.9-3.3,8.7-6.8,13-9.6l0-0.2c-5.4,1.7-11.1,3-17.4,4.3l-12.2,2.4
			l-1.7-8.6l42.1-8.3l2,9.9l-14.4,12.1c-4,3.4-8.9,7.1-13.4,10.1l0.1,0.2c5.5-1.4,11.4-2.6,18.3-4l12.7-2.5L121.5,253.6z"/>
		<path class="st1" d="M119.2,180.7c0.6,1.9,0.9,6,0,11c-2.5,14.4-13,20.3-25,18.2c-14.4-2.5-20.7-14-18.5-26.6
			c0.9-4.9,2.5-8.4,3.7-10l7.3,3.2c-1.2,1.8-2.4,4.3-3,7.7c-1.3,7.5,2.2,14.1,11.6,15.7c8.5,1.4,14.7-2.6,16.1-11
			c0.5-2.9,0.4-6.1,0-8.1L119.2,180.7z"/>
		<path class="st1" d="M119.7,154.9l9.2,9.3l-2.6,3.9l-30.7-31.2l2.9-4.5l41.2,15.1l-2.6,4l-12.3-4.5L119.7,154.9z M121.2,145.4
			l-10.3-4c-2.9-1.1-6.2-2.6-9.2-3.8l-0.1,0.2c2.4,2.2,5.2,4.7,7.3,6.7l7.9,7.7L121.2,145.4z"/>
		<path class="st1" d="M127.3,127c-2.3-2.7-3.7-4-5.3-5.9l3.3-2.7l2.6,2.7l0.1-0.1c-0.6-2.7,0.1-5.6,2.5-7.7c2.2-1.8,5-2.3,8-0.5
			l0.1-0.1c-0.3-1.7-0.3-3.3,0.1-4.6c0.4-1.4,1.3-2.6,2.5-3.6c3.2-2.6,7.6-2.4,12.6,3.6l13.1,15.5l-3.7,3.1l-12.4-14.6
			c-2.6-3-5.5-5.6-8.4-3.2c-1.6,1.3-1.8,3.7-0.5,6.3c0.4,0.7,1,1.5,1.7,2.3l12.7,15l-3.7,3.1l-13-15.3c-2.2-2.6-5-4.9-7.8-2.6
			c-1.5,1.3-2,3.9-0.3,6.7c0.4,0.7,1,1.4,1.6,2.2l12.5,14.8l-3.7,3.1L127.3,127z"/>
		<path class="st1" d="M155.1,81.5l4.5-1.9l6.6,15.3l0.1,0c0.3-3.4,1.9-5.3,4.3-6.3c4.4-1.9,9.9,1.8,13.9,10.9
			c4.4,10.1,2.2,16.5-2.2,18.4c-3,1.3-5.3,0.2-7.4-1.7l-0.2,0.1l1.3,3.8l-3.9,1.6c-0.6-1.6-1.8-4.9-2.7-6.8L155.1,81.5z
			 M172.7,109.7c0.3,0.6,0.6,1.3,0.9,1.7c2.9,3.7,5.1,3.6,6.3,3.1c3.6-1.5,2.8-6.9,0.2-12.9c-2.4-5.6-5.9-10-9.6-8.5
			c-2.1,0.9-2.7,4.2-2.1,6.8c0.2,0.7,0.5,1.4,0.7,2L172.7,109.7z"/>
		<path class="st1" d="M191.1,74.5c0.5,1.8-0.4,3.3-2.1,3.8c-1.5,0.4-3-0.6-3.5-2.4c-0.5-1.8,0.5-3.4,2-3.7
			C189.2,71.7,190.6,72.6,191.1,74.5z M195.2,112.9l-7.4-29.6l4.8-1.1l7.4,29.5L195.2,112.9z"/>
		<path class="st1" d="M207.4,95.4c1,9.3,4.9,10.9,8.4,10.6c2.1-0.2,3.8-0.9,4.9-1.7l1.1,3.5c-1.6,1.1-4.2,1.9-6.6,2.1
			c-7.3,0.7-11.7-4.9-12.7-14.1c-1-9.8,2.6-16.4,8.7-17c6.3-0.6,9.4,5.7,10.1,12.5c0.1,1.1,0.2,1.9,0.2,2.7L207.4,95.4z M216.7,90.9
			c-0.5-6.1-3.1-8.6-5.4-8.3c-3.2,0.3-4.4,5.1-4.1,9.3L216.7,90.9z"/>
		<path class="st1" d="M230.3,86.5c0.5-3.6,0.5-5.4,0.7-7.8l4.2,0.5l-0.2,3.7l0.1,0c1.6-2.3,4.3-3.7,7.5-3.3c4.2,0.5,7,4,6.1,11.3
			l-2.6,20.3l-4.9-0.6l2.5-19.5c0.5-3.6,0.2-7.3-3.3-7.7c-2-0.2-4.2,1.2-5.2,4.4c-0.2,0.7-0.4,1.7-0.5,2.7l-2.4,19l-4.9-0.6
			L230.3,86.5z"/>
		<path class="st1" d="M268.5,78.8l-2.2,6.8l5.6,1.8l-1.1,3.5l-5.6-1.8l-5.5,17.2c-1.2,3.8-0.1,5.2,1.6,5.8c0.7,0.2,1.4,0.4,1.9,0.4
			l-1,3.6c-0.9,0-2.1-0.1-3.6-0.6c-1.8-0.6-3.3-1.6-4.1-3.2c-0.7-1.7-0.7-3.9,0.6-7.9l5.4-16.8l-3.6-1.1l1.1-3.5l3.6,1.1l1.6-4.9
			L268.5,78.8z"/>
		<path class="st1" d="M275.1,105.7c-4.3,8.3-1.9,11.8,1.3,13.4c1.9,0.9,3.7,1.3,5.1,1.2l-1,3.5c-2,0.1-4.5-0.7-6.7-1.8
			c-6.6-3.3-7.2-10.4-2.9-18.7c4.6-8.8,11.2-12.4,16.6-9.6c5.6,2.8,4.8,9.8,1.6,15.9c-0.5,1-0.9,1.7-1.3,2.4L275.1,105.7z
			 M285.4,106.9c2.9-5.4,2.1-8.8,0-9.9c-2.8-1.4-6.5,2-8.5,5.6L285.4,106.9z"/>
		<path class="st1" d="M329.8,155.4c-8.3,4.4-8.4,8.5-6.8,11.6c1,1.8,2.3,3.2,3.4,3.9l-2.9,2.3c-1.6-1.1-3.3-3.1-4.4-5.2
			c-3.4-6.5,0.2-12.6,8.5-16.9c8.9-4.6,16.3-3.7,19.2,1.7c2.9,5.5-1.8,10.7-8,13.9c-1,0.5-1.8,0.9-2.5,1.2L329.8,155.4z
			 M337.5,162.2c5.5-2.7,6.9-6,5.8-8.1c-1.5-2.8-6.4-2.1-10.2-0.3L337.5,162.2z"/>
		<path class="st1" d="M366.1,185l-1.5-7.6l4.3-0.8l4,19.9l-4.3,0.8l-1.5-7.6l-37.8,7.4l-1-4.8L366.1,185z"/>
		<path class="st1" d="M345.7,208.4c-9.4,0.3-11.4,3.9-11.3,7.5c0,2.1,0.6,3.8,1.3,5l-3.6,0.8c-1-1.7-1.6-4.2-1.6-6.6
			c-0.2-7.3,5.8-11.2,15.2-11.4c10-0.2,16.3,3.8,16.4,9.9c0.1,6.2-6.4,8.8-13.4,9c-1.1,0-2,0-2.7,0L345.7,208.4z M349.5,217.9
			c6.2,0,8.9-2.4,8.8-4.7c-0.1-3.1-4.8-4.7-9-4.8L349.5,217.9z"/>
		<path class="st1" d="M352.8,231.6c2.6,0.4,5.6,0.7,7.9,1l-0.7,4.3l-4.8-0.5l0,0.1c2.7,1.5,4.7,4.4,4.2,7.2c-0.1,0.4-0.2,0.7-0.2,1
			l-5-0.8c0.1-0.3,0.2-0.6,0.2-1c0.5-3-2-5.7-5.4-6.8c-0.8-0.2-1.7-0.5-2.7-0.6l-16.8-2.7l0.8-4.8L352.8,231.6z"/>
		<path class="st1" d="M349,250.1c2.5,0.8,5.5,1.5,7.7,2.1l-1.3,4.1l-4.7-1.2l0,0.1c2.5,1.8,4,5,3.1,7.7c-0.1,0.4-0.3,0.6-0.4,0.9
			l-4.8-1.5c0.2-0.3,0.3-0.6,0.4-0.9c0.9-2.9-1.1-5.9-4.3-7.5c-0.8-0.4-1.6-0.7-2.6-1l-16.3-5.1l1.5-4.6L349,250.1z"/>
		<path class="st1" d="M321.8,258.1l27.9,12.9l-2.1,4.4l-27.9-12.9L321.8,258.1z M354.7,279.1c-1.8-0.7-2.4-2.4-1.6-4
			c0.7-1.4,2.3-2,4.1-1.2c1.7,0.8,2.3,2.5,1.7,3.9C358.1,279.4,356.4,279.8,354.7,279.1z"/>
		<path class="st1" d="M345.5,293.6l-6.1-3.8l-3.2,4.9l-3.2-2l3.2-4.9l-15.4-9.7c-3.4-2.1-5.1-1.5-6,0c-0.4,0.6-0.7,1.2-0.9,1.8
			l-3.3-1.8c0.2-0.9,0.7-2,1.5-3.3c1-1.6,2.4-2.8,4.1-3.1c1.8-0.3,3.9,0.3,7.5,2.6l15,9.5l2-3.1l3.2,2l-2,3.1l4.4,2.8L345.5,293.6z"
			/>
		<path class="st1" d="M306.4,305.5c-8.7-8-7.9-14.7-4.7-18.1c3.8-4,10.5-3.8,18.4,3.5c8.2,7.6,8.3,14.4,4.7,18.2
			C321,313,314.2,312.8,306.4,305.5z M316.8,294.4c-3.7-3.4-9.4-7.4-12.4-4.2c-2.9,3,1.9,8.5,5.4,11.7c3.4,3.2,9.3,7.5,12.3,4.3
			C325,303.1,320.3,297.6,316.8,294.4z"/>
		<path class="st1" d="M304.3,316.5c1.5,2.1,3.5,4.4,4.9,6.2l-3.5,2.6l-3.1-3.7l-0.1,0.1c0.9,2.9,0.3,6.4-2.1,8.1
			c-0.3,0.2-0.6,0.4-0.8,0.5l-3-4c0.3-0.1,0.5-0.3,0.9-0.5c2.5-1.8,2.6-5.5,0.9-8.6c-0.4-0.7-0.9-1.5-1.5-2.3l-10.1-13.6l3.9-2.9
			L304.3,316.5z"/>
		<path class="st1" d="M277.6,307.2l14.9,26.6l-4.3,2.4l-14.9-26.6L277.6,307.2z M291.8,343.2c-1-1.6-0.5-3.3,1.1-4.2
			c1.4-0.8,3.1-0.2,4,1.4c0.9,1.6,0.4,3.4-1,4.1C294.3,345.4,292.7,344.8,291.8,343.2z"/>
		<path class="st1" d="M254.7,333.3c-4-11.1-0.1-16.6,4.4-18.2c5.2-1.8,11.1,1.4,14.7,11.5c3.7,10.5,0.6,16.5-4.4,18.3
			C264.2,346.6,258.2,343.3,254.7,333.3z M269.1,328.2c-1.7-4.7-4.8-10.9-9-9.5c-4,1.4-2.3,8.4-0.7,12.9c1.6,4.4,4.8,10.9,8.8,9.5
			C272.3,339.7,270.7,332.6,269.1,328.2z"/>
		<path class="st1" d="M234.9,326.9c-1.5-0.9-4.1-1.6-6.2-1.5c-4.5,0.1-7,3.1-6.9,7.3c0.1,3.9,2.5,6.2,5.9,8.7
			c3.4,2.2,8.3,6.1,8.4,11.5c0.2,6.4-4.2,11.2-11,11.4c-2.7,0.1-5-0.7-6.1-1.4l1.1-4.2c1.1,0.7,2.9,1.4,5.1,1.3
			c4.2-0.1,6.1-3.3,6-6.2c-0.1-4.2-2.4-5.8-6.5-8.6c-5.2-3.4-7.6-7.3-7.8-12c-0.2-7.3,4.9-12,11.7-12.2c2.9-0.1,6.1,0.8,7.3,1.6
			L234.9,326.9z"/>
		<path class="st1" d="M207.5,343.3c-0.4,2.6-0.7,5.6-1,7.8l-4.3-0.7l0.5-4.7l-0.1,0c-1.5,2.7-4.4,4.7-7.2,4.2
			c-0.4-0.1-0.7-0.2-1-0.2l0.8-4.9c0.3,0.1,0.6,0.2,1,0.2c3.1,0.5,5.8-2,6.8-5.4c0.3-0.8,0.5-1.7,0.6-2.7l2.6-16.6l4.8,0.7
			L207.5,343.3z"/>
		<path class="st1" d="M183.1,359.8l-4.7-1.4l12.5-41.7l4.7,1.4L183.1,359.8z"/>
	</g>
	<g>
		<path class="st1" d="M336.8,117.2c-8.7,8.9-17.2,17.8-25.5,26.6c-8.4,8.8-69.2,70-77.4,78.9c4.1,7.4,8.3,15.1,12.6,23.1
			c4.3,8,8.7,16.6,13.2,25.6l-3.6,2.4l0.2,2.2c-0.8,0.6-1.6,1.1-2.4,1.6c-0.9,0.5-1.8,0.9-2.9,1.3l1.3,3.4c-0.9,1.4-2.1,2.5-3.5,3.3
			c-1.4,0.8-2.9,1.4-4.6,1.6c-1.7-0.1-5.3-3.6-10.8-10.4c-5.5-6.8-12.7-16.8-21.7-30c-8.9,10-17.6,20.3-26,30.9
			c-8.4,10.6-16.5,21.6-24.4,32.9c-2,0.8-4,1.4-6.2,1.8c-2.1,0.4-4.3,0.5-6.6,0.5l-1.5,0c-2.3-1.9-4.2-3.9-5.6-6
			c-1.4-2.1-2.1-3.8-2.1-5c0-0.7,0.1-1.5,0.4-2.5c0.3-1,0.6-2.2,1.2-3.6l-2.1-3.5c3.1-6.2,9.4-14.9,19.2-26.2
			c9.7-11.2,22.9-25.3,39.6-42.1c-3.1-7.4-6.3-15-9.5-23c-3.2-8-6.7-17.1-10.5-27.3c1.1-1.9,2.3-3.4,3.5-4.6
			c1.2-1.1,2.4-1.7,3.3-1.7c0.7,0,1.3,0.2,2,0.5c0.6,0.3,1.3,0.8,2.1,1.5c0.5-0.4,1.1-0.7,1.7-0.9c0.7-0.2,1.4-0.3,2.1-0.3l1,0
			c0.6-0.7,1.2-1.3,1.9-1.7c0.7-0.5,1.4-0.9,2.2-1.3h0.2c2.4,0,6.8,6,13.2,18c3.9,7.2,7.1,13.2,9.7,17.7c4.9-4.6,63.8-63,71.5-70.5
			c14.8-14.4,22.9-21.5,24.4-21.5c0.9,0,2.1,0.4,3.5,1c1.4,0.7,3.1,1.7,5,3l5.6-4.4c1.3,1.2,2.5,2.5,3.5,3.9
			C335.1,114.1,336,115.6,336.8,117.2z"/>
	</g>
</g>
<text transform="matrix(1.0547 0 0 1 433.3271 380.9355)"><tspan x="0" y="0" class="st0 st2 st3">Intranet</tspan><tspan x="1587.3" y="0" class="st0 st4 st3"> </tspan></text>
</svg>
