<?xml version="1.0" encoding="utf-8"?>
<!-- Generator: Adobe Illustrator 25.0.1, SVG Export Plug-In . SVG Version: 6.00 Build 0)  -->
<svg version="1.1" id="Livello_1" xmlns="http://www.w3.org/2000/svg" xmlns:xlink="http://www.w3.org/1999/xlink" x="0px" y="0px"
     viewBox="0 0 534.05 95.86" style="enable-background:new 0 0 534.05 95.86;" xml:space="preserve">
<style type="text/css">
	.st0{fill:#57585D;}
	.st1{fill:#FFFFFF;}
	.st2{fill:#D20A11;}
</style>
    <path class="st0" d="M519.9-0.09c3.51,0,6.41,1.2,8.93,3.66c2.46,2.45,3.69,5.44,3.69,8.87c0,3.46-1.23,6.47-3.69,8.91"/>
    <path class="st0" d="M528.83,21.35c-2.52,2.49-5.42,3.74-8.93,3.74c-3.51,0-6.45-1.25-8.9-3.74c-2.46-2.44-3.7-5.45-3.7-8.91
	c0-3.42,1.25-6.41,3.7-8.87c2.5-2.47,5.42-3.66,8.9-3.66"/>
    <path class="st1" d="M512.21,4.81c-2.08,2.13-3.16,4.68-3.16,7.63c0,3.03,1.08,5.59,3.16,7.69c2.11,2.15,4.63,3.2,7.64,3.2
	c3.07,0,5.58-1.05,7.69-3.2c2.12-2.1,3.17-4.66,3.17-7.69c0-2.95-1.05-5.5-3.17-7.63c-2.11-2.13-4.65-3.2-7.69-3.2
	C516.91,1.62,514.32,2.69,512.21,4.81"/>
    <path class="st0" d="M519.66,5.5c1.72,0,2.99,0.15,3.78,0.48c1.45,0.63,2.2,1.78,2.2,3.52c0,1.22-0.5,2.15-1.36,2.72
	c-0.51,0.31-1.16,0.55-2.03,0.67c1.11,0.17,1.88,0.63,2.39,1.35c0.47,0.75,0.76,1.48,0.76,2.15v1.02c0,0.31,0,0.64,0.03,1.03
	c0,0.37,0.04,0.57,0.11,0.72l0.1,0.18h-2.28c0-0.05-0.06-0.09-0.06-0.17c0,0-0.05-0.07-0.05-0.16l-0.04-0.42v-1.09
	c0-1.61-0.42-2.65-1.29-3.16c-0.55-0.32-1.46-0.44-2.74-0.44h-1.94v5.43h-2.46V5.5H519.66z"/>
    <path class="st1" d="M522.36,7.74c-0.68-0.35-1.62-0.5-3.04-0.5h-2.08v4.93h2.22c1.02,0,1.84-0.11,2.36-0.32
	c0.97-0.37,1.43-1.1,1.43-2.11C523.25,8.76,522.95,8.09,522.36,7.74"/>
    <path class="st0" d="M107.25,35.48l4.18-14.38h32.39c0,0,17.89,2.39,17.89,16.07c0,13.69-9.17,13.84-9.17,13.84
	s11.36,9.02,11.36,19.5c0,10.55-12.01,15.27-13.62,15.27h-40.5V37.16h16.96v34.04h12.51c0,0,7.61-0.32,5.02-6.06
	c-3.18-7.21-16.23-13.49-16.23-13.49s10.61-6.57,12.61-10.51c2.05-3.98,0.96-5.67-1.24-5.67H107.25z"/>
    <polygon class="st0" points="168.66,20.94 208.1,20.94 212.14,35.47 186.09,35.47 186.09,45.23 211.02,45.23 206.89,60.02
	186.09,60.02 186.09,71.39 214.49,71.39 210.61,85.77 168.46,85.77 "/>
    <polygon class="st0" points="402.44,20.94 441.9,20.94 445.94,35.47 419.88,35.47 419.88,45.23 444.83,45.23 440.69,60.02
	419.88,60.02 419.88,71.39 448.29,71.39 444.38,85.77 402.26,85.77 "/>
    <path class="st0" d="M217.53,35.48l3.38-14.53h33.94c0,0,19.35,1.26,18.93,18.96c-0.3,10.53-14.14,18.69-14.14,18.69
	s13.41,22.55,18.75,27.17l-14.37,10.09c0,0-13.26-18.29-16.44-23.15C244.4,67.88,238.18,56,238.18,56s10.48-7.92,12.73-9.99
	c2.19-2.07,4.46-4.44,4.13-6.65c-0.56-3.58-4.55-3.72-8.15-3.88C243.32,35.37,217.53,35.48,217.53,35.48"/>
    <rect x="219.9" y="41.67" class="st0" width="17.15" height="48.52"/>
    <path class="st0" d="M451.21,35.48l3.39-14.53h33.89c0,0,19.38,1.26,18.93,18.96c-0.26,10.53-14.11,18.69-14.11,18.69
	s13.39,22.55,18.74,27.17l-14.3,10.09c0,0-13.3-18.29-16.52-23.15c-3.15-4.83-9.43-16.72-9.43-16.72s10.55-7.92,12.76-9.99
	c2.24-2.07,4.53-4.44,4.16-6.65c-0.58-3.58-4.56-3.72-8.16-3.88C476.97,35.37,451.21,35.48,451.21,35.48"/>
    <path class="st0" d="M327.99,20.94h-25.01c0,0-15.07,0.55-20.64,10.39c-4.11,7.34-5.61,16.1-2.07,28.69
	c3.71,13.3,17.89,21.51,25.77,24.2c8.82,3.09,26.89,1.56,26.89,1.56V41.45h-23.04v14.94h6.38v13.16c0,0-0.2,2.38-3.74,1.39
	c-4.54-1.23-12.34-5.95-14.41-13.3c-2.06-7.32-2.81-15.56,1.26-19.26c3.61-3.33,8.28-2.59,10.24-2.59h23.4L327.99,20.94z"/>
    <polygon class="st0" points="340.93,20.94 357.54,20.94 376.7,41.04 376.7,20.94 394.2,20.94 394.2,85.77 377.21,85.77
	377.21,67.18 358.28,44.5 358.28,85.77 340.93,85.77 "/>
    <rect x="453.56" y="41.67" class="st0" width="17.18" height="48.52"/>
    <rect x="5.12" y="0.84" class="st2" width="93.43" height="93.58"/>
    <polygon class="st1" points="56.06,44.9 98.67,44.9 98.67,24.58 63.21,24.58 "/>
    <rect x="59.41" y="48.92" class="st1" width="23.67" height="46.1"/>
</svg>
